# xmcd
#
# Track frame offsets: 
#        150
#        3822
#        21040
#        35946
#        56276
#        72688
#        89409
#        105846
#        123604
#        141744
#        158618
#        182148
#
# Disc length: 2492 seconds
#
# Revision: 1
# Processed by: cddbd v1.5.2PL0 Copyright (c) Steve Scherf et al.
# Submitted via: ExactAudioCopy v1.0b3
#
DISCID=a209ba0c
DTITLE=K-Ci and JoJo - My Brother's Keeper
DYEAR=2013
DGENRE=R&B
TTITLE0=Back Again (Interlude)
TTITLE1=Knock It Off
TTITLE2=Middle Of The Night
TTITLE3=My Brother's Keeper
TTITLE4=Say Hello To Goodbye
TTITLE5=Somebody Please
TTITLE6=What Goes Around
TTITLE7=Show and Prove
TTITLE8=Don't Ask, Don't Tell
TTITLE9=Happily Ever After
TTITLE10=Lay You Down
TTITLE11=Now That It's Over (Interlude)
EXTD=
EXTT0=
EXTT1=
EXTT2=
EXTT3=
EXTT4=
EXTT5=
EXTT6=
EXTT7=
EXTT8=
EXTT9=
EXTT10=
EXTT11=
PLAYORDER=
